<svg width="21" height="21" viewBox="0 0 21 21" fill="none" xmlns="http://www.w3.org/2000/svg">
<path fill-rule="evenodd" clip-rule="evenodd" d="M10.5227 19.6476C15.7694 19.6476 20.0227 15.3943 20.0227 10.1476C20.0227 4.90088 15.7694 0.647583 10.5227 0.647583C5.276 0.647583 1.02271 4.90088 1.02271 10.1476C1.02271 15.3943 5.276 19.6476 10.5227 19.6476Z" stroke="#979797"/>
<path fill-rule="evenodd" clip-rule="evenodd" d="M11.6511 10.6476L14.8924 7.40635C15.0661 7.23257 15.0661 6.95169 14.8924 6.77791C14.7186 6.60414 14.4377 6.60414 14.2639 6.77791L11.0227 10.0192L7.78146 6.77791C7.60769 6.60414 7.32681 6.60414 7.15303 6.77791C6.97926 6.95169 6.97926 7.23257 7.15303 7.40635L10.3943 10.6476L7.15303 13.8889C6.97926 14.0627 6.97926 14.3436 7.15303 14.5174C7.2397 14.604 7.35347 14.6476 7.46725 14.6476C7.58102 14.6476 7.6948 14.604 7.78146 14.5174L11.0227 11.2761L14.2639 14.5174C14.3506 14.604 14.4644 14.6476 14.5782 14.6476C14.6919 14.6476 14.8057 14.604 14.8924 14.5174C15.0661 14.3436 15.0661 14.0627 14.8924 13.8889L11.6511 10.6476Z" fill="#888888"/>
</svg>
